<?xml version="1.0" encoding="UTF-8"?>
<svg enable-background="new 0 0 459.52 459.52" version="1.1" viewBox="0 0 459.52 459.52" xml:space="preserve"
	xmlns="http://www.w3.org/2000/svg">

	<polygon points="177.26 25.005 177.26 99.52 142.26 99.52 142.26 35.005" fill="#F67A21" />
	<polygon points="229.76 0 239.76 17.5 229.76 35 142.26 35 177.26 0" fill="#FB992D" />
	<polygon points="229.76 89.52 239.76 219.52 229.76 349.52 144.76 359.52 59.76 349.52 59.76 89.52" fill="#FFB739" />
	<polygon points="317.26 35.005 317.26 99.52 282.26 99.52 282.26 25.005" fill="#BB4919" />
	<polygon points="317.26 35 229.76 35 229.76 0 282.26 0" fill="#F67A21" />
	<polygon points="229.76 404.52 239.76 433.76 229.76 459.52 59.76 459.52 135.02 404.52 182.39 394.52"
		fill="#FFB739" />
	<polygon points="229.76 349.52 229.76 404.52 135.02 404.52 59.76 349.52" fill="#FB992D" />
	<polygon points="59.76 349.52 155.02 404.52 59.76 459.52" fill="#F67A21" />
	<polygon points="399.76 89.52 399.76 349.52 314.76 359.52 229.76 349.52 229.76 89.52" fill="#FB992D" />
	<polygon points="399.76 459.52 229.76 459.52 229.76 404.52 277.13 394.52 324.5 404.52" fill="#FB992D" />
	<polygon points="399.76 349.52 324.5 404.52 229.76 404.52 229.76 349.52" fill="#F67A21" />
	<polygon points="399.76 459.52 304.5 404.52 399.76 349.52" fill="#BB4919" />
</svg>